<?xml version="1.0" encoding="utf-8"?>
<!-- Generator: Adobe Illustrator 21.0.2, SVG Export Plug-In . SVG Version: 6.00 Build 0)  -->
<svg version="1.1" id="Ebene_1" xmlns="http://www.w3.org/2000/svg" xmlns:xlink="http://www.w3.org/1999/xlink" x="0px" y="0px"
	 viewBox="0 0 83.6 94.4" style="enable-background:new 0 0 83.6 94.4;" xml:space="preserve">
<circle cx="52.1" cy="37" r="3.9"/>
<path d="M80.1,21L45.4,1c-2.2-1.3-5-1.3-7.2,0L3.6,21C1.4,22.3,0,24.7,0,27.2v40c0,2.6,1.4,5,3.6,6.2l34.6,20c1.1,0.6,2.3,1,3.6,1
	s2.5-0.3,3.6-1l34.6-20c2.2-1.3,3.6-3.7,3.6-6.2v-40C83.7,24.7,82.3,22.3,80.1,21z M21.7,67.4c0,0,3.4-14.5,9-9
	C36.2,64,21.7,67.4,21.7,67.4z M61.9,28.1c-0.1,16.2-8.6,24-15.3,27.7l1.6,6.3l-3.3,3.3l-7.7-7.7c0,1.4-0.6,2.7-1.6,3.8l-8.1-8.1
	c1-1,2.4-1.6,3.8-1.6l-7.6-7.6l3.3-3.3l6.3,1.6C37,35.7,44.8,27.3,61,27.2h1L61.9,28.1z"/>
</svg>
