<?xml version="1.0" encoding="utf-8"?>
<!-- Generator: Adobe Illustrator 21.0.2, SVG Export Plug-In . SVG Version: 6.00 Build 0)  -->
<svg version="1.1" id="Ebene_1" xmlns="http://www.w3.org/2000/svg" xmlns:xlink="http://www.w3.org/1999/xlink" x="0px" y="0px"
	 viewBox="0 0 83.6 116.5" style="enable-background:new 0 0 83.6 116.5;" xml:space="preserve">
<circle cx="53.7" cy="37" r="3.9"/>
<path d="M80.1,21L45.4,1c-2.2-1.3-5-1.3-7.2,0L3.6,21C1.4,22.3,0,24.7,0,27.2v40c0,2.6,1.4,5,3.6,6.2l34.6,20c1.1,0.6,2.3,1,3.6,1
	s2.5-0.3,3.6-1l34.6-20c2.2-1.3,3.6-3.7,3.6-6.2v-40C83.7,24.7,82.3,22.3,80.1,21z M21.7,67.4c0,0,3.4-14.5,9-9
	C36.2,64,21.7,67.4,21.7,67.4z M61.9,28.1c-0.1,16.2-8.6,24-15.3,27.7l1.6,6.3l-3.3,3.3l-7.7-7.7c0,1.4-0.6,2.7-1.6,3.8l-8.1-8.1
	c1-1,2.4-1.6,3.8-1.6l-7.6-7.6l3.3-3.3l6.3,1.6C37,35.7,44.8,27.3,61,27.2h1L61.9,28.1z"/>
<g>
	<path d="M23.7,107.8v2.4c0,0.2,0,0.4,0,0.5c0,0.4,0.2,0.6,0.6,0.6c0.3,0,0.5-0.1,0.7-0.2l0.5,1.3c-0.4,0.2-1,0.4-1.5,0.4
		c-1,0-1.6-0.5-1.9-1.4c-0.1-0.3-0.1-0.7-0.1-1.1v-2.6h-0.8v-1.4H22l0.3-1.4h1.4v1.4h1.6v1.4H23.7z"/>
	<path d="M30.3,112.7l-0.1-0.5c-0.4,0.5-1,0.7-1.7,0.7c-1.2,0-2.3-0.7-2.3-2c0-1.5,1.4-2,2.7-2c0.3,0,0.7,0,1.1,0.1v-0.1
		c0-0.8-0.3-1.3-1.2-1.3c-0.7,0-1.4,0.3-1.9,0.6l-0.5-1.2c0.8-0.4,1.8-0.6,2.7-0.6c1.8,0,2.6,1,2.6,2.7v3.8H30.3z M30.1,109.9
		c-0.3-0.1-0.6-0.1-0.9-0.1c-0.6,0-1.4,0.2-1.4,1c0,0.6,0.5,0.8,1,0.8c0.5,0,0.9-0.2,1.3-0.5V109.9z"/>
	<path d="M37.1,112.7l-1.5-2.3l-0.6,0.7v1.6h-1.7v-9h1.7v5.3h0l2-2.6h1.9l-2.3,2.6l2.4,3.7H37.1z"/>
	<path d="M41.1,109.9c0.1,0.9,0.7,1.5,1.6,1.5c0.8,0,1.2-0.3,1.6-0.9l1.1,0.8c-0.7,1-1.5,1.5-2.9,1.5c-1.9,0-3.2-1.3-3.2-3.2
		c0-1.9,1.4-3.4,3.2-3.4c1.8,0,3,1.2,3,2.9c0,0.3,0,0.6-0.1,0.8H41.1z M43.9,108.8c0-0.8-0.6-1.2-1.3-1.2c-0.8,0-1.3,0.5-1.4,1.2
		H43.9z"/>
	<path d="M53,109.5c0,1.9-1.4,3.3-3.3,3.3c-1.9,0-3.3-1.4-3.3-3.3s1.4-3.3,3.3-3.3C51.6,106.2,53,107.6,53,109.5z M49.7,107.7
		c-0.9,0-1.6,0.8-1.6,1.8s0.6,1.8,1.6,1.8s1.6-0.8,1.6-1.8S50.6,107.7,49.7,107.7z"/>
	<path d="M57.7,105.2c-0.3-0.1-0.5-0.2-0.9-0.2c-0.3,0-0.4,0.1-0.5,0.2c-0.1,0.2-0.2,0.5-0.2,0.8v0.4h1.3v1.4h-1.3v4.9h-1.7v-4.9
		h-0.7v-1.4h0.7v-0.5c0-0.7,0.1-1.3,0.5-1.7c0.3-0.4,0.9-0.6,1.8-0.6c0.5,0,1.1,0.1,1.6,0.4L57.7,105.2z M62,105.2
		c-0.3-0.1-0.5-0.2-0.9-0.2c-0.3,0-0.4,0.1-0.5,0.2c-0.1,0.2-0.2,0.5-0.2,0.8v0.4H62v1.4h-1.6v4.9h-1.7v-4.9H58v-1.4h0.7v-0.5
		c0-0.7,0.1-1.3,0.5-1.7c0.3-0.4,0.9-0.6,1.8-0.6c0.5,0,1.1,0.1,1.6,0.4L62,105.2z"/>
</g>
</svg>
