<svg height="400" viewBox="0 0 900 400" width="900" xmlns="http://www.w3.org/2000/svg"><g fill="none" fill-rule="evenodd"><path d="m0 400h900v-400h-900z" fill="#2c374a"/><path d="m484.68743 177.0264h-45.96615s3.94921 89.2208-10.70608 136.1352h67.37831c-14.65529-46.9144-10.70608-136.1352-10.70608-136.1352" fill="#3b475d"/><path d="m709 406.768269c-5.357808-1.802406-11.182284-2.803043-17.281332-2.803043-3.22596 0-6.374664.279854-9.421056.808068.351828-1.96078.536616-3.968353.536616-6.012819 0-21.561383-20.278656-39.039231-45.292896-39.039231-5.437152 0-10.649844.826965-15.480432 2.341418-2.027448-6.128901-8.558712-10.620968-16.320852-10.620968-2.727972 0-5.297256.567808-7.582572 1.553147-4.213584-14.001716-18.972612-24.341029-36.535824-24.341029-5.553036 0-10.82106 1.04203-15.569172 2.898427-3.359592-4.612648-8.598384-8.100479-14.795568-9.668023.0783-.729781.124236-1.46856.124236-2.216338 0-13.175651-12.39228-23.856909-27.679572-23.856909-5.892336 0-11.350368 1.591841-15.838524 4.2968-2.59434-8.83206-11.8755-15.368593-22.929372-15.368593-3.548556 0-6.912324.677589-9.93366 1.885192-6.658632-5.076972-15.406308-8.164368-24.994404-8.164368-19.71072 0-35.883324 13.024475-37.587132 29.631266-4.981968-5.284838-12.581244-8.663786-21.097152-8.663786-15.009588 0-27.176364 10.486889-27.176364 23.423178 0 2.010272.294408 3.960254.846684 5.821151-.28188-.005399-.562716-.017997-.846684-.017997-11.078928 0-20.938464 4.477669-27.296424 11.441633-4.430736-2.139851-9.53694-3.364551-14.97618-3.364551-16.95456 0-30.69882 11.846568-30.69882 26.460184 0 2.237035.325728 4.40838.932292 6.483442-1.464732-.127779-2.951388-.193469-4.454748-.193469-9.167364 0-17.673876 2.432304-24.70626 6.583326-8.34678-4.178918-18.038232-6.583326-28.387404-6.583326-10.00674 0-19.399608 2.246034-27.557424 6.172993v60.345956h522z" fill="#3b475d"/><path d="m900 400c-13.059995-5.057785-109.417705-14.129252-289.07313-27.2144-3.599899-.262198-8.05879.7352-11.71412 2.0816-1.53418-5.4488-13.47642-28.4432-19.35007-28.4432-2.06427 0-4.00846.5056-5.73777 1.3816-3.18844-12.448-14.35667-21.64-27.64684-21.64-4.20201 0-8.18835.9264-11.78127 2.5768-2.54222-4.1008-6.50644-7.2016-11.19588-8.5952.05925-.6488.09401-1.3056.09401-1.9704 0-11.7144-9.3773-21.2104-20.94527-21.2104-4.45876 0-8.58888 1.416-11.98509 3.8208-1.96315-7.852-8.98625-13.6632-17.35077-13.6632-2.68521 0-5.23059.6024-7.51685 1.676-5.03862-4.5136-11.65803-7.2584-18.91339-7.2584-14.9152 0-27.15309 11.5792-28.44237 26.3432-3.76988-4.6984-9.52029-7.7024-15.96432-7.7024-11.35783 0-20.56449 9.3232-20.56449 20.824 0 1.7864.22278 3.5208.64069 5.1752-9.02417-.016-16.48493 3.964-21.29603 10.156-3.35276-1.9024-7.21665-2.9912-11.33255-2.9912-12.8296 0-23.22995 10.532-23.22995 23.524 0 1.9888.24648 3.9192.70547 5.764-1.10837-.1136-2.23333-.172-3.37093-.172-6.93699 0-13.37391 2.1624-18.69535 5.8528-6.31605-3.7152-57.98998-20.5096-305.33373 31.6848h263 395z" fill="#fffffe"/><path d="m592.831247 395.3256c-1.535988-5.4488-6.484055-9.4424-12.36463-9.4424-2.066704 0-4.013186.5048-5.744534 1.3808-3.1922-12.448-14.373597-21.64-27.679435-21.64-4.206964 0-8.198004.9264-11.79516 2.5768-2.545217-4.1008-6.514111-7.2016-11.20908-8.5952.05932-.6488.094121-1.3056.094121-1.9704 0-11.7136-9.388355-21.2096-20.969964-21.2096-4.464016 0-8.599006 1.4152-11.99922 3.82-1.965464-7.852-8.996844-13.6632-17.371226-13.6632-2.688375 0-5.236756.6032-7.525712 1.676-5.04456-4.5136-11.671774-7.2584-18.935688-7.2584-14.932785 0-27.185103 11.5792-28.475903 26.344-3.774324-4.6992-9.531514-7.7032-15.983141-7.7032-11.371221 0-20.588735 9.3232-20.588735 20.824 0 1.7872.223043 3.5208.641445 5.1752-.213551-.0048-.426312-.016-.641445-.016-8.393364 0-15.86292 3.9808-20.679692 10.172-3.356713-1.9016-7.225158-2.9912-11.345911-2.9912-12.844725 0-23.257337 10.5328-23.257337 23.524 0 1.248.107567 2.468.293436 3.6632h297.591888c-5.689961-4.2392-12.717386-6.748-20.326146-6.748-4.119171 0-8.068291.7352-11.727931 2.0816" fill="#dfeff1"/><path d="m474.937547 208h-26.71529s2.295283 68.6848-6.222257 104.8h39.159804c-8.51754-36.1152-6.222257-104.8-6.222257-104.8" fill="#fffffe"/><path d="m530.318343 85.4464c0 38.3544-30.739548 69.4464-68.659171 69.4464-37.918833 0-68.659172-31.092-68.659172-69.4464s30.740339-69.4464 68.659172-69.4464c37.919623 0 68.659171 31.092 68.659171 69.4464" fill="#3b475d"/><path d="m276.208018 8 .31479 1.9144 1.737677.8232-1.702876.8936-.236488 1.9264-1.36752-1.3616-1.883999.3672.858161-1.736-.927763-1.6984 1.897444.2888z" fill="#faed4d"/><path d="m312.755868 54 1.450568 1.2704 1.857107-.4888-.745849 1.788 1.032957 1.6344-1.91089-.1648-1.218035 1.4992-.435803-1.8896-1.785923-.708 1.641974-1.0032z" fill="#faed4d"/><path d="m283.969947 185 .633536 1.832 1.85078.5104-1.526498 1.1752.091748 1.9384-1.576326-1.1048-1.794623.6872.55207-1.8584-1.200634-1.5136 1.918009-.0432z" fill="#faed4d"/><path d="m393.799634 226 .017401 1.94 1.590563 1.0856-1.819142.6168-.529133 1.8648-1.142105-1.5592-1.917218.0672 1.113631-1.5808-.655682-1.8232 1.830215.5832z" fill="#faed4d"/><path d="m325.490643 297 1.047984 1.6256 1.918009.0488-1.20538 1.5104.546534 1.86-1.792251-.6928-1.57949 1.1008.097285-1.9384-1.523334-1.18 1.852361-.5048z" fill="#faed4d"/><path d="m395.505936 26.0648-.359874 1.9056 1.348538 1.3808-1.903772.2424-.881097 1.724-.816241-1.756-1.89349-.316 1.399158-1.3272-.28869-1.9184 1.68152.9352z" fill="#faed4d"/><path d="m368.505936 127.0656-.359874 1.9056 1.347747 1.3808-1.903771.2424-.881098 1.7232-.816241-1.756-1.892699-.3152 1.398367-1.328-.287899-1.9184 1.680729.9352z" fill="#faed4d"/><path d="m318.054312 18.5336c0 .2944-.236489.5328-.527552.5328-.291062 0-.52676-.2384-.52676-.5328s.235698-.5336.52676-.5336c.291063 0 .527552.2392.527552.5336" fill="#fffffe"/><path d="m360.055102 37.5336c0 .2944-.236488.5336-.527551.5336s-.527551-.2392-.527551-.5336.236488-.5336.527551-.5336.527551.2392.527551.5336" fill="#fffffe"/><path d="m277.790931 68.4c0 .2208-.177168.4-.395465.4s-.395466-.1792-.395466-.4.177169-.4.395466-.4.395465.1792.395465.4" fill="#fffffe"/><path d="m358.790931 87.4c0 .2208-.177168.4-.395465.4s-.395466-.1792-.395466-.4.177169-.4.395466-.4.395465.1792.395465.4" fill="#fffffe"/><path d="m271.790931 24.4c0 .2208-.177168.4-.395465.4s-.395466-.1792-.395466-.4.177169-.4.395466-.4.395465.1792.395465.4" fill="#fffffe"/><path d="m427.52676 8.2664c0 .1472-.117848.2664-.26338.2664-.145531 0-.26338-.1192-.26338-.2664s.117849-.2664.26338-.2664c.145532 0 .26338.1192.26338.2664" fill="#fffffe"/><path d="m316.527551 101.2672c0 .1472-.117849.2664-.26338.2664s-.264171-.1192-.264171-.2664.11864-.2672.264171-.2672.26338.12.26338.2672" fill="#fffffe"/><path d="m291.318483 139.6672c0 .368-.295018.6664-.658846.6664-.36462 0-.659637-.2984-.659637-.6664s.295017-.6672.659637-.6672c.363828 0 .658846.2992.658846.6672" fill="#fffffe"/><path d="m345.055102 153.5336c0 .2944-.236488.5328-.527551.5328s-.527551-.2384-.527551-.5328.236488-.5336.527551-.5336.527551.2392.527551.5336" fill="#fffffe"/><path d="m397.318483 129.6664c0 .368-.295018.6664-.659637.6664-.363829 0-.658846-.2984-.658846-.6664s.295017-.6664.658846-.6664c.364619 0 .659637.2984.659637.6664" fill="#fffffe"/><path d="m412.527551 69.2664c0 .1472-.118639.2672-.264171.2672-.145531 0-.26338-.12-.26338-.2672s.117849-.2664.26338-.2664c.145532 0 .264171.1192.264171.2664" fill="#fffffe"/><path d="m452.52676 21.2672c0 .1472-.117848.2664-.26338.2664-.145531 0-.26338-.1192-.26338-.2664s.117849-.2672.26338-.2672c.145532 0 .26338.12.26338.2672" fill="#fffffe"/><path d="m317.055102 205.5328c0 .2952-.236488.5336-.527551.5336s-.527551-.2384-.527551-.5336c0-.2944.236488-.5328.527551-.5328s.527551.2384.527551.5328" fill="#fffffe"/><path d="m392.317692 180.6672c0 .368-.295018.6664-.658846.6664-.363829 0-.658846-.2984-.658846-.6664s.295017-.6672.658846-.6672c.363828 0 .658846.2992.658846.6672" fill="#fffffe"/><path d="m281.054312 257.5336c0 .2944-.235698.5328-.526761.5328s-.527551-.2384-.527551-.5328.236488-.5336.527551-.5336.526761.2392.526761.5336" fill="#fffffe"/><path d="m359.790931 249.4c0 .2208-.177168.4-.395465.4s-.395466-.1792-.395466-.4.177169-.4.395466-.4.395465.1792.395465.4" fill="#fffffe"/><path d="m309.52676 321.2672c0 .1472-.117848.2664-.26338.2664-.145531 0-.26338-.1192-.26338-.2664s.117849-.2672.26338-.2672c.145532 0 .26338.12.26338.2672" fill="#fffffe"/><path d="m413.527551 269.2664c0 .148-.118639.2672-.264171.2672-.145531 0-.26338-.1192-.26338-.2672 0-.1472.117849-.2664.26338-.2664.145532 0 .264171.1192.264171.2664" fill="#fffffe"/><path d="m276.527551 313.2664c0 .148-.117849.2672-.26338.2672s-.264171-.1192-.264171-.2672c0-.1472.11864-.2664.264171-.2664s.26338.1192.26338.2664" fill="#fffffe"/><path d="m156.208018 28 .31479 1.9144 1.737677.8232-1.702876.8936-.236488 1.9264-1.36752-1.3616-1.883999.3672.858161-1.736-.927763-1.6984 1.897444.2888z" fill="#faed4d"/><path d="m192.755868 74 1.450568 1.2704 1.857107-.4888-.745849 1.788 1.032957 1.6344-1.91089-.1648-1.218035 1.4992-.435803-1.8896-1.785923-.708 1.641974-1.0032z" fill="#faed4d"/><path d="m205.490643 317 1.047984 1.6256 1.918009.0488-1.20538 1.5104.546534 1.86-1.792251-.6928-1.57949 1.1008.097285-1.9384-1.523334-1.18 1.852361-.5048z" fill="#faed4d"/><path d="m248.505936 147.0656-.359874 1.9056 1.347747 1.3808-1.903771.2424-.881098 1.7232-.816241-1.756-1.892699-.3152 1.398367-1.328-.287899-1.9184 1.680729.9352z" fill="#faed4d"/><path d="m198.054312 38.5336c0 .2944-.236489.5328-.527552.5328-.291062 0-.52676-.2384-.52676-.5328s.235698-.5336.52676-.5336c.291063 0 .527552.2392.527552.5336" fill="#fffffe"/><path d="m240.055102 57.5336c0 .2944-.236488.5336-.527551.5336s-.527551-.2392-.527551-.5336.236488-.5336.527551-.5336.527551.2392.527551.5336" fill="#fffffe"/><path d="m157.790931 88.4c0 .2208-.177168.4-.395465.4s-.395466-.1792-.395466-.4.177169-.4.395466-.4.395465.1792.395465.4" fill="#fffffe"/><path d="m238.790931 107.4c0 .2208-.177168.4-.395465.4s-.395466-.1792-.395466-.4.177169-.4.395466-.4.395465.1792.395465.4" fill="#fffffe"/><path d="m151.790931 44.4c0 .2208-.177168.4-.395465.4s-.395466-.1792-.395466-.4.177169-.4.395466-.4.395465.1792.395465.4" fill="#fffffe"/><path d="m196.527551 121.2672c0 .1472-.117849.2664-.26338.2664s-.264171-.1192-.264171-.2664.11864-.2672.264171-.2672.26338.12.26338.2672" fill="#fffffe"/><path d="m171.318483 159.6672c0 .368-.295018.6664-.658846.6664-.36462 0-.659637-.2984-.659637-.6664s.295017-.6672.659637-.6672c.363828 0 .658846.2992.658846.6672" fill="#fffffe"/><path d="m225.055102 173.5336c0 .2944-.236488.5328-.527551.5328s-.527551-.2384-.527551-.5328.236488-.5336.527551-.5336.527551.2392.527551.5336" fill="#fffffe"/><path d="m161.054312 277.5336c0 .2944-.235698.5328-.526761.5328s-.527551-.2384-.527551-.5328.236488-.5336.527551-.5336.526761.2392.526761.5336" fill="#fffffe"/><path d="m239.790931 269.4c0 .2208-.177168.4-.395465.4s-.395466-.1792-.395466-.4.177169-.4.395466-.4.395465.1792.395465.4" fill="#fffffe"/><path d="m189.52676 341.2672c0 .1472-.117848.2664-.26338.2664-.145531 0-.26338-.1192-.26338-.2664s.117849-.2672.26338-.2672c.145532 0 .26338.12.26338.2672" fill="#fffffe"/><path d="m156.527551 333.2664c0 .148-.117849.2672-.26338.2672s-.264171-.1192-.264171-.2672c0-.1472.11864-.2664.264171-.2664s.26338.1192.26338.2664" fill="#fffffe"/><path d="m215.490643 247 1.047984 1.6256 1.918009.0488-1.20538 1.5104.546534 1.86-1.792251-.6928-1.57949 1.1008.097285-1.9384-1.523334-1.18 1.852361-.5048z" fill="#faed4d"/><path d="m199.52676 271.2672c0 .1472-.117848.2664-.26338.2664-.145531 0-.26338-.1192-.26338-.2664s.117849-.2672.26338-.2672c.145532 0 .26338.12.26338.2672" fill="#fffffe"/><path d="m166.527551 263.2664c0 .148-.117849.2672-.26338.2672s-.264171-.1192-.264171-.2672c0-.1472.11864-.2664.264171-.2664s.26338.1192.26338.2664" fill="#fffffe"/><path d="m95.4906429 267 1.0479841 1.6256 1.9180086.0488-1.2053794 1.5104.5465336 1.86-1.7922505-.6928-1.57949 1.1008.0972845-1.9384-1.5233338-1.18 1.8523613-.5048z" fill="#faed4d"/><path d="m51.0543115 227.5336c0 .2944-.2356975.5328-.5267603.5328-.2910627 0-.5275512-.2384-.5275512-.5328s.2364885-.5336.5275512-.5336c.2910628 0 .5267603.2392.5267603.5336" fill="#fffffe"/><path d="m79.5267603 291.2672c0 .1472-.1178488.2664-.2633801.2664-.1455314 0-.2633802-.1192-.2633802-.2664s.1178488-.2672.2633802-.2672c.1455313 0 .2633801.12.2633801.2672" fill="#fffffe"/><path d="m46.5275512 283.2664c0 .148-.1178487.2672-.2633801.2672s-.2641711-.1192-.2641711-.2672c0-.1472.1186397-.2664.2641711-.2664s.2633801.1192.2633801.2664" fill="#fffffe"/><g transform="matrix(-1 0 0 -1 140 222)"><path d="m5.2080177 0 .31479069 1.9144 1.73767625.8232-1.70287527.8936-.23648849 1.9264-1.36752036-1.3616-1.88399856.3672.85816055-1.736-.92776251-1.6984 1.89744439.2888z" fill="#faed4d"/><path d="m41.7558677 46 1.4505681 1.2704 1.8571069-.4888-.7458483 1.788 1.0329564 1.6344-1.9108902-.1648-1.2180343 1.4992-.4358032-1.8896-1.7859231-.708 1.6419736-1.0032z" fill="#faed4d"/><path d="m97.5059361 119.0656-.3598738 1.9056 1.3477471 1.3808-1.9037718.2424-.8810976 1.7232-.8162412-1.756-1.8926988-.3152 1.3983667-1.328-.287899-1.9184 1.6807292.9352z" fill="#faed4d"/><g fill="#fffffe"><path d="m47.0543115 10.5336c0 .2944-.2364884.5328-.5275512.5328-.2910627 0-.5267603-.2384-.5267603-.5328s.2356976-.5336.5267603-.5336c.2910628 0 .5275512.2392.5275512.5336"/><path d="m89.0551025 29.5336c0 .2944-.2364885.5336-.5275513.5336-.2910627 0-.5275512-.2392-.5275512-.5336s.2364885-.5336.5275512-.5336c.2910628 0 .5275513.2392.5275513.5336"/><path d="m6.79093138 60.4c0 .2208-.17716863.4-.39546569.4s-.39546569-.1792-.39546569-.4.17716863-.4.39546569-.4.39546569.1792.39546569.4"/><path d="m87.7909314 79.4c0 .2208-.1771686.4-.3954657.4s-.3954657-.1792-.3954657-.4.1771686-.4.3954657-.4.3954657.1792.3954657.4"/><path d="m.79093139 16.4c0 .2208-.17716863.4-.3954657.4-.21829706 0-.39546569-.1792-.39546569-.4s.17716863-.4.39546569-.4c.21829707 0 .3954657.1792.3954657.4"/><path d="m45.5275512 93.2672c0 .1472-.1178487.2664-.2633801.2664s-.2641711-.1192-.2641711-.2664.1186397-.2672.2641711-.2672.2633801.12.2633801.2672"/><path d="m20.3184826 131.6672c0 .368-.2950174.6664-.6588458.6664-.3646194 0-.6596368-.2984-.6596368-.6664s.2950174-.6672.6596368-.6672c.3638284 0 .6588458.2992.6588458.6672"/><path d="m74.0551025 145.5336c0 .2944-.2364885.5328-.5275513.5328-.2910627 0-.5275512-.2384-.5275512-.5328s.2364885-.5336.5275512-.5336c.2910628 0 .5275513.2392.5275513.5336"/></g></g><path d="m883.969947 145 .633536 1.832 1.85078.5104-1.526498 1.1752.091748 1.9384-1.576326-1.1048-1.794623.6872.55207-1.8584-1.200634-1.5136 1.918009-.0432z" fill="#faed4d"/><path d="m877.790931 28.4c0 .2208-.177168.4-.395465.4s-.395466-.1792-.395466-.4.177169-.4.395466-.4.395465.1792.395465.4" fill="#fffffe"/><path d="m891.318483 99.6672c0 .368-.295018.6664-.658846.6664-.36462 0-.659637-.2984-.659637-.6664s.295017-.6672.659637-.6672c.363828 0 .658846.2992.658846.6672" fill="#fffffe"/><path d="m881.054312 217.5336c0 .2944-.235698.5328-.526761.5328s-.527551-.2384-.527551-.5328.236488-.5336.527551-.5336.526761.2392.526761.5336" fill="#fffffe"/><path d="m876.527551 273.2664c0 .148-.117849.2672-.26338.2672s-.264171-.1192-.264171-.2672c0-.1472.11864-.2664.264171-.2664s.26338.1192.26338.2664" fill="#fffffe"/><path d="m792.755868 34 1.450568 1.2704 1.857107-.4888-.745849 1.788 1.032957 1.6344-1.91089-.1648-1.218035 1.4992-.435803-1.8896-1.785923-.708 1.641974-1.0032z" fill="#faed4d"/><path d="m805.490643 277 1.047984 1.6256 1.918009.0488-1.20538 1.5104.546534 1.86-1.792251-.6928-1.57949 1.1008.097285-1.9384-1.523334-1.18 1.852361-.5048z" fill="#faed4d"/><path d="m848.505936 107.0656-.359874 1.9056 1.347747 1.3808-1.903771.2424-.881098 1.7232-.816241-1.756-1.892699-.3152 1.398367-1.328-.287899-1.9184 1.680729.9352z" fill="#faed4d"/><path d="m757.790931 48.4c0 .2208-.177168.4-.395465.4s-.395466-.1792-.395466-.4.177169-.4.395466-.4.395465.1792.395465.4" fill="#fffffe"/><path d="m838.790931 67.4c0 .2208-.177168.4-.395465.4s-.395466-.1792-.395466-.4.177169-.4.395466-.4.395465.1792.395465.4" fill="#fffffe"/><path d="m796.527551 81.2672c0 .1472-.117849.2664-.26338.2664s-.264171-.1192-.264171-.2664.11864-.2672.264171-.2672.26338.12.26338.2672" fill="#fffffe"/><path d="m771.318483 119.6672c0 .368-.295018.6664-.658846.6664-.36462 0-.659637-.2984-.659637-.6664s.295017-.6672.659637-.6672c.363828 0 .658846.2992.658846.6672" fill="#fffffe"/><path d="m825.055102 133.5336c0 .2944-.236488.5328-.527551.5328s-.527551-.2384-.527551-.5328.236488-.5336.527551-.5336.527551.2392.527551.5336" fill="#fffffe"/><path d="m761.054312 237.5336c0 .2944-.235698.5328-.526761.5328s-.527551-.2384-.527551-.5328.236488-.5336.527551-.5336.526761.2392.526761.5336" fill="#fffffe"/><path d="m839.790931 229.4c0 .2208-.177168.4-.395465.4s-.395466-.1792-.395466-.4.177169-.4.395466-.4.395465.1792.395465.4" fill="#fffffe"/><path d="m815.490643 207 1.047984 1.6256 1.918009.0488-1.20538 1.5104.546534 1.86-1.792251-.6928-1.57949 1.1008.097285-1.9384-1.523334-1.18 1.852361-.5048z" fill="#faed4d"/><path d="m799.52676 231.2672c0 .1472-.117848.2664-.26338.2664-.145531 0-.26338-.1192-.26338-.2664s.117849-.2672.26338-.2672c.145532 0 .26338.12.26338.2672" fill="#fffffe"/><path d="m766.527551 223.2664c0 .148-.117849.2672-.26338.2672s-.264171-.1192-.264171-.2672c0-.1472.11864-.2664.264171-.2664s.26338.1192.26338.2664" fill="#fffffe"/><path d="m773.969947 295 .633536 1.832 1.85078.5104-1.526498 1.1752.091748 1.9384-1.576326-1.1048-1.794623.6872.55207-1.8584-1.200634-1.5136 1.918009-.0432z" fill="#faed4d"/><path d="m781.318483 249.6672c0 .368-.295018.6664-.658846.6664-.36462 0-.659637-.2984-.659637-.6664s.295017-.6672.659637-.6672c.363828 0 .658846.2992.658846.6672" fill="#fffffe"/><path d="m771.054312 367.5336c0 .2944-.235698.5328-.526761.5328s-.527551-.2384-.527551-.5328.236488-.5336.527551-.5336.526761.2392.526761.5336" fill="#fffffe"/><path d="m738.505936 257.0656-.359874 1.9056 1.347747 1.3808-1.903771.2424-.881098 1.7232-.816241-1.756-1.892699-.3152 1.398367-1.328-.287899-1.9184 1.680729.9352z" fill="#faed4d"/><path d="m661.318483 269.6672c0 .368-.295018.6664-.658846.6664-.36462 0-.659637-.2984-.659637-.6664s.295017-.6672.659637-.6672c.363828 0 .658846.2992.658846.6672" fill="#fffffe"/><path d="m715.055102 283.5336c0 .2944-.236488.5328-.527551.5328s-.527551-.2384-.527551-.5328.236488-.5336.527551-.5336.527551.2392.527551.5336" fill="#fffffe"/><path d="m705.490643 357 1.047984 1.6256 1.918009.0488-1.20538 1.5104.546534 1.86-1.792251-.6928-1.57949 1.1008.097285-1.9384-1.523334-1.18 1.852361-.5048z" fill="#faed4d"/><path d="m656.527551 373.2664c0 .148-.117849.2672-.26338.2672s-.264171-.1192-.264171-.2672c0-.1472.11864-.2664.264171-.2664s.26338.1192.26338.2664" fill="#fffffe"/><g transform="matrix(-1 0 0 -1 740 182)"><path d="m5.2080177 0 .31479069 1.9144 1.73767625.8232-1.70287527.8936-.23648849 1.9264-1.36752036-1.3616-1.88399856.3672.85816055-1.736-.92776251-1.6984 1.89744439.2888z" fill="#faed4d"/><path d="m41.7558677 46 1.4505681 1.2704 1.8571069-.4888-.7458483 1.788 1.0329564 1.6344-1.9108902-.1648-1.2180343 1.4992-.4358032-1.8896-1.7859231-.708 1.6419736-1.0032z" fill="#faed4d"/><path d="m97.5059361 119.0656-.3598738 1.9056 1.3477471 1.3808-1.9037718.2424-.8810976 1.7232-.8162412-1.756-1.8926988-.3152 1.3983667-1.328-.287899-1.9184 1.6807292.9352z" fill="#faed4d"/><g fill="#fffffe"><path d="m47.0543115 10.5336c0 .2944-.2364884.5328-.5275512.5328-.2910627 0-.5267603-.2384-.5267603-.5328s.2356976-.5336.5267603-.5336c.2910628 0 .5275512.2392.5275512.5336"/><path d="m89.0551025 29.5336c0 .2944-.2364885.5336-.5275513.5336-.2910627 0-.5275512-.2392-.5275512-.5336s.2364885-.5336.5275512-.5336c.2910628 0 .5275513.2392.5275513.5336"/><path d="m6.79093138 60.4c0 .2208-.17716863.4-.39546569.4s-.39546569-.1792-.39546569-.4.17716863-.4.39546569-.4.39546569.1792.39546569.4"/><path d="m87.7909314 79.4c0 .2208-.1771686.4-.3954657.4s-.3954657-.1792-.3954657-.4.1771686-.4.3954657-.4.3954657.1792.3954657.4"/><path d="m.79093139 16.4c0 .2208-.17716863.4-.3954657.4-.21829706 0-.39546569-.1792-.39546569-.4s.17716863-.4.39546569-.4c.21829707 0 .3954657.1792.3954657.4"/><path d="m45.5275512 93.2672c0 .1472-.1178487.2664-.2633801.2664s-.2641711-.1192-.2641711-.2664.1186397-.2672.2641711-.2672.2633801.12.2633801.2672"/><path d="m20.3184826 131.6672c0 .368-.2950174.6664-.6588458.6664-.3646194 0-.6596368-.2984-.6596368-.6664s.2950174-.6672.6596368-.6672c.3638284 0 .6588458.2992.6588458.6672"/><path d="m74.0551025 145.5336c0 .2944-.2364885.5328-.5275513.5328-.2910627 0-.5275512-.2384-.5275512-.5328s.2364885-.5336.5275512-.5336c.2910628 0 .5275513.2392.5275513.5336"/></g></g><path d="m359.527551 201.2664c0 .148-.117849.2672-.26338.2672s-.264171-.1192-.264171-.2672c0-.1472.11864-.2664.264171-.2664s.26338.1192.26338.2664" fill="#fffffe"/><path d="m432.054312 201.5328c0 .2952-.236489.5336-.527552.5336-.291062 0-.52676-.2384-.52676-.5336 0-.2944.235698-.5328.52676-.5328.291063 0 .527552.2384.527552.5328" fill="#fffffe"/><path d="m645.052467 8-.314791 1.9144-1.737676.8232 1.702875.8936.236489 1.9264 1.36752-1.3616 1.883999.3672-.858161-1.736.927763-1.6984-1.897445.2888z" fill="#faed4d"/><path d="m608.595574 54-1.451359 1.2704-1.856316-.4888.745848 1.788-1.033747 1.6344 1.911681-.1648 1.218034 1.4992.435804-1.8896 1.785923-.708-1.641974-1.0032z" fill="#faed4d"/><path d="m637.484315 185-.633536 1.832-1.850779.5104 1.526498 1.1752-.091748 1.9384 1.576326-1.1048 1.794623.6872-.55207-1.8584 1.200634-1.5136-1.918009-.0432z" fill="#faed4d"/><path d="m527.607173 226-.017401 1.94-1.589772 1.0856 1.819142.6168.529133 1.8648 1.142105-1.5592 1.917218.0672-1.113632-1.5808.655683-1.8232-1.830216.5832z" fill="#faed4d"/><path d="m595.965202 297-1.047193 1.6256-1.918009.0488 1.205379 1.5104-.546533 1.86 1.79225-.6928 1.57949 1.1008-.097284-1.9384 1.523334-1.18-1.852362-.5048z" fill="#faed4d"/><path d="m525.987873 26.0648.360665 1.9056-1.348538 1.3808 1.903772.2424.881097 1.724.816242-1.756 1.893489-.316-1.399157-1.3272.28869-1.9184-1.68152.9352z" fill="#faed4d"/><path d="m552.987873 127.0656.359874 1.9056-1.347747 1.3808 1.902981.2424.881888 1.7232.816242-1.756 1.892698-.3152-1.398366-1.328.287899-1.9184-1.680729.9352z" fill="#faed4d"/><g fill="#fffffe"><path d="m604 18.5336c0 .2944.235698.5328.527551.5328.291063 0 .526761-.2384.526761-.5328s-.235698-.5336-.526761-.5336c-.291853 0-.527551.2392-.527551.5336"/><path d="m561 37.5336c0 .2944.236488.5336.527551.5336s.527551-.2392.527551-.5336-.236488-.5336-.527551-.5336-.527551.2392-.527551.5336"/><path d="m643 68.4c0 .2208.177169.4.395466.4s.395465-.1792.395465-.4-.177168-.4-.395465-.4-.395466.1792-.395466.4"/><path d="m563 87.4c0 .2208.177169.4.395466.4s.395465-.1792.395465-.4-.177168-.4-.395465-.4-.395466.1792-.395466.4"/><path d="m649 24.4c0 .2208.176378.4.395466.4.218297 0 .395465-.1792.395465-.4s-.177168-.4-.395465-.4c-.219088 0-.395466.1792-.395466.4"/><path d="m494 8.2664c0 .1472.117849.2664.26338.2664.145532 0 .26338-.1192.26338-.2664s-.117848-.2664-.26338-.2664c-.145531 0-.26338.1192-.26338.2664"/><path d="m605 101.2672c0 .1472.117849.2664.26338.2664.145532 0 .264171-.1192.264171-.2664s-.118639-.2672-.264171-.2672c-.145531 0-.26338.12-.26338.2672"/><path d="m630 139.6672c0 .368.295017.6664.658846.6664.363828 0 .659637-.2984.659637-.6664s-.295809-.6672-.659637-.6672c-.363829 0-.658846.2992-.658846.6672"/><path d="m576 153.5336c0 .2944.236488.5328.527551.5328s.527551-.2384.527551-.5328-.236488-.5336-.527551-.5336-.527551.2392-.527551.5336"/><path d="m524 129.6664c0 .368.295017.6664.659637.6664.363828 0 .658846-.2984.658846-.6664s-.295018-.6664-.658846-.6664c-.36462 0-.659637.2984-.659637.6664"/><path d="m509 69.2664c0 .1472.117849.2672.264171.2672.145531 0 .26338-.12.26338-.2672s-.117849-.2664-.26338-.2664c-.146322 0-.264171.1192-.264171.2664"/><path d="m477 28.2664c0 .1472.117849.2664.26338.2664.145532 0 .26338-.1192.26338-.2664s-.117848-.2664-.26338-.2664c-.145531 0-.26338.1192-.26338.2664"/><path d="m605 205.5328c0 .2952.236488.5336.527551.5336s.527551-.2384.527551-.5336c0-.2944-.236488-.5328-.527551-.5328s-.527551.2384-.527551.5328"/><path d="m529 180.6672c0 .368.295017.6664.658846.6664.363828 0 .658846-.2984.658846-.6664s-.295018-.6672-.658846-.6672c-.363829 0-.658846.2992-.658846.6672"/><path d="m641 257.5336c0 .2944.235698.5328.52676.5328.291063 0 .527552-.2384.527552-.5328s-.236489-.5336-.527552-.5336c-.291062 0-.52676.2392-.52676.5336"/><path d="m562 249.4c0 .2208.177169.4.395466.4s.395465-.1792.395465-.4-.177168-.4-.395465-.4-.395466.1792-.395466.4"/><path d="m612 321.2672c0 .1472.117849.2664.26338.2664.145532 0 .26338-.1192.26338-.2664s-.117848-.2672-.26338-.2672c-.145531 0-.26338.12-.26338.2672"/><path d="m511 266.2664c0 .1472.11864.2664.264171.2664s.26338-.1192.26338-.2664-.117849-.2664-.26338-.2664-.264171.1192-.264171.2664"/><path d="m645 313.2664c0 .148.117849.2672.26338.2672.145532 0 .264171-.1192.264171-.2672 0-.1472-.118639-.2664-.264171-.2664-.145531 0-.26338.1192-.26338.2664"/><path d="m562 201.2664c0 .148.117849.2672.26338.2672.145532 0 .264171-.1192.264171-.2672 0-.1472-.118639-.2664-.264171-.2664-.145531 0-.26338.1192-.26338.2664"/><path d="m492 215.5328c0 .2952.235698.5336.52676.5336.291063 0 .527552-.2384.527552-.5336 0-.2944-.236489-.5328-.527552-.5328-.291062 0-.52676.2384-.52676.5328"/></g><path d="m471.544605 196h-19.377819s-6.722917 10.4-6.129718 30.8c.593198 20.4 15.818627 33.2 15.818627 33.2s15.225429-12.8 15.818628-33.2c.593198-20.4-6.129718-30.8-6.129718-30.8" fill="#e9842d"/><path d="m468.598021 196h-12.590836s-4.368314 8.1576-3.983131 24.1592c.385975 16.0008 10.278944 26.0408 10.278944 26.0408s9.89297-10.04 10.278154-26.0408c.385183-16.0016-3.983131-24.1592-3.983131-24.1592" fill="#f0ad2b"/><path d="m465.321569 196h-6.312423s-2.190089 5.3952-1.997102 15.9776c.193778 10.5824 5.153709 17.2224 5.153709 17.2224s4.959931-6.64 5.152918-17.2224-1.997102-15.9776-1.997102-15.9776" fill="#fada2c"/><path d="m471.280484 171-9.699982 1.9504-9.700774-1.9504s-11.434495 1.0504-9.700773 11.4016c1.734513 10.352 6.043507 20.4032 6.043507 20.4032h26.715289s4.308994-10.0512 6.043507-20.4032c1.734512-10.3512-9.700774-11.4016-9.700774-11.4016" fill="#da3443"/><path d="m470 202.8672h3.249937v-25.8672h-3.249937z" fill="#b22b38"/><path d="m464 202.8672h3.249937v-25.8672h-3.249937z" fill="#b22b38"/><path d="m477 199.7352c.907198-2.428 2.163988-6.0616 3.249937-10.1592v-12.576h-3.249937z" fill="#b22b38"/><path d="m457 202.8672h3.249937v-25.8672h-3.249937z" fill="#b22b38"/><path d="m444 189.9264c1.102558 4.0968 2.362512 7.6976 3.249937 10.0552v-22.9816h-3.249937z" fill="#b22b38"/><path d="m451 202.8672h3.249937v-25.8672h-3.249937z" fill="#b22b38"/><path d="m481 178.4s22.343812.8 24.518873 52.4h12.259436s12.061704-54.4-17.795956-75.8z" fill="#da3443"/><path d="m481 178.4 7.172957-8.8424 3.306884-.5576s21.157414 11 18.389155 61.8h-4.350123c-2.175061-51.6-24.518873-52.4-24.518873-52.4" fill="#b22b38"/><path d="m443.187122 178.4s-22.343812.8-24.518873 52.4h-12.259436s-12.061704-54.4 17.795956-75.8z" fill="#da3443"/><path d="m443.118748 178.4-7.172957-8.8424-3.306884-.5576s-21.157414 11-18.389154 61.8h4.350122c2.175062-51.6 24.518873-52.4 24.518873-52.4" fill="#b22b38"/><path d="m462.445073 29v.0048-.0048s-46.445073 18.1928-46.445073 81.8968c0 63.7032 27.043526 70.6368 27.043526 70.6368h38.802303s27.044317-6.9336 27.044317-70.6368c0-63.704-46.445073-81.8968-46.445073-81.8968" fill="#fffffe"/><path d="m478.830229 39.7608c4.508309 3.8888 9.363046 8.964 13.812826 15.444 0 0 .000791.0016.001582.0016 0 0 .00079.0016.001581.0024-9.393892-2.7264-22.410249-6.0088-30.646218-6.0088v-12.1984c.081466 0 .158186-.0016.241234-.0016 2.355394 0 9.720547.816 16.588995 2.7608" fill="#da3443"/><path d="m483.275811 85.8864c0 12.0872-9.688119 21.8864-21.638301 21.8864s-21.63751-9.7992-21.63751-21.8864 9.687328-21.8864 21.63751-21.8864 21.638301 9.7992 21.638301 21.8864" fill="#43636d"/><path d="m483.275811 83.8856c0 12.0872-9.688119 21.8864-21.638301 21.8864s-21.63751-9.7992-21.63751-21.8864 9.687328-21.8856 21.63751-21.8856 21.638301 9.7984 21.638301 21.8856" fill="#587f8e"/><path d="m477.49436 83.4216c0 8.5176-6.826529 15.4224-15.247576 15.4224-8.420255 0-15.246784-6.9048-15.246784-15.4224 0-8.5168 6.826529-15.4216 15.246784-15.4216 8.421047 0 15.247576 6.9048 15.247576 15.4216" fill="#9ad4ea"/><path d="m470.14898 97.1704-20.930417-21.1704c-1.351702 2.2416-2.154498 4.8528-2.218563 7.6544l15.581348 15.76c2.770633-.064 5.351442-.8768 7.567632-2.244" fill="#bfe4ee"/><path d="m461.116798 68c-1.437913.1088-2.817298.42-4.116798.9048l19.556569 19.7808c.478514-1.3152.786977-2.7096.893753-4.1648z" fill="#bfe4ee"/><path d="m474.348032 92.4944-21.250745-21.4944c-1.165833.844-2.20828 1.8456-3.097287 2.9808l21.401021 21.6464c1.122332-.8984 2.113369-1.9536 2.947011-3.1328" fill="#bfe4ee"/><path d="m462.246784 70.4008c8.020045 0 14.580029 6.2672 15.187465 14.2216.030055-.3976.060111-.7952.060111-1.2008 0-8.5168-6.826529-15.4216-15.247576-15.4216-8.420255 0-15.246784 6.9048-15.246784 15.4216 0 .4056.029264.8032.060111 1.2008.607435-7.9544 7.166629-14.2216 15.186673-14.2216" fill="#68c5e4"/><path d="m461.46085 64c-.80675 0-1.46085.6616-1.46085 1.4776s.6541 1.4776 1.46085 1.4776 1.460851-.6616 1.460851-1.4776-.654101-1.4776-1.460851-1.4776" fill="#21373e"/><path d="m461.46085 101c-.80675 0-1.46085.6616-1.46085 1.4776s.6541 1.4776 1.46085 1.4776 1.460851-.6616 1.460851-1.4776-.654101-1.4776-1.460851-1.4776" fill="#21373e"/><path d="m474.46085 69c-.80675 0-1.46085.6616-1.46085 1.4776s.6541 1.4776 1.46085 1.4776 1.460851-.6616 1.460851-1.4776-.654101-1.4776-1.460851-1.4776" fill="#21373e"/><path d="m448.46085 96c-.80675 0-1.46085.6616-1.46085 1.4776s.6541 1.4776 1.46085 1.4776 1.460851-.6616 1.460851-1.4776-.654101-1.4776-1.460851-1.4776" fill="#21373e"/><path d="m480.46085 82c-.80675 0-1.46085.6616-1.46085 1.4776s.6541 1.4776 1.46085 1.4776 1.46006-.6616 1.46006-1.4776-.65331-1.4776-1.46006-1.4776" fill="#21373e"/><path d="m443.46085 82c-.80675 0-1.46085.6616-1.46085 1.4776s.6541 1.4776 1.46085 1.4776 1.460851-.6616 1.460851-1.4776-.654101-1.4776-1.460851-1.4776" fill="#21373e"/><path d="m474.46085 96c-.80675 0-1.46085.6616-1.46085 1.4776s.6541 1.4776 1.46085 1.4776 1.460851-.6616 1.460851-1.4776-.654101-1.4776-1.460851-1.4776" fill="#21373e"/><path d="m448.46085 69c-.80675 0-1.46085.6616-1.46085 1.4776s.6541 1.4776 1.46085 1.4776 1.460851-.6616 1.460851-1.4776-.654101-1.4776-1.460851-1.4776" fill="#21373e"/><path d="m462.921701 64.4776c0 .816-.654101 1.4768-1.460851 1.4768s-1.46085-.6608-1.46085-1.4768c0-.8168.6541-1.4776 1.46085-1.4776s1.460851.6608 1.460851 1.4776" fill="#37535d"/><path d="m461.463486 65.6248-.463486-.812.463486-.8128h.927762l.463486.8128-.463486.812z" fill="#7ea5b4"/><path d="m461.463486 64.2424h.927762l.393884.6912.069602-.1208-.463486-.8128h-.927762l-.463486.8128.068811.1208z" fill="#538597"/><path d="m462.921701 102.4776c0 .816-.654101 1.4776-1.460851 1.4776s-1.46085-.6616-1.46085-1.4776.6541-1.4776 1.46085-1.4776 1.460851.6616 1.460851 1.4776" fill="#37535d"/><path d="m461.463486 103.6248-.463486-.8128.463486-.812h.927762l.463486.812-.463486.8128z" fill="#7ea5b4"/><path d="m461.463486 102.2424h.927762l.393884.6912.069602-.1216-.463486-.812h-.927762l-.463486.812.068811.1216z" fill="#538597"/><path d="m475.921701 70.4776c0 .816-.654101 1.4776-1.460851 1.4776s-1.46085-.6616-1.46085-1.4776.6541-1.4776 1.46085-1.4776 1.460851.6616 1.460851 1.4776" fill="#37535d"/><path d="m474.463486 70.6248-.463486-.812.463486-.8128h.926971l.464277.8128-.464277.812z" fill="#7ea5b4"/><path d="m474.463486 69.2424h.926971l.394675.6912.069602-.1208-.464277-.8128h-.926971l-.463486.8128.068811.1208z" fill="#538597"/><path d="m449.921701 96.4776c0 .816-.654101 1.4776-1.460851 1.4776s-1.46085-.6616-1.46085-1.4776.6541-1.4776 1.46085-1.4776 1.460851.6616 1.460851 1.4776" fill="#37535d"/><path d="m448.463486 97.6248-.463486-.812.463486-.8128h.927762l.463486.8128-.463486.812z" fill="#7ea5b4"/><path d="m448.463486 96.2424h.927762l.393884.6912.069602-.1208-.463486-.8128h-.927762l-.463486.8128.068811.1208z" fill="#538597"/><path d="m481.92091 83.4776c0 .816-.65331 1.4776-1.46006 1.4776s-1.46085-.6616-1.46085-1.4776.6541-1.4776 1.46085-1.4776 1.46006.6616 1.46006 1.4776" fill="#37535d"/><path d="m479.463486 84.6248-.463486-.812.463486-.8128h.927762l.463486.8128-.463486.812z" fill="#7ea5b4"/><path d="m479.463486 83.2424h.927762l.394675.6912.068811-.1208-.463486-.8128h-.927762l-.463486.8128.069602.1208z" fill="#538597"/><path d="m444.921701 83.4776c0 .816-.654101 1.4776-1.460851 1.4776s-1.46085-.6616-1.46085-1.4776.6541-1.4776 1.46085-1.4776 1.460851.6616 1.460851 1.4776" fill="#37535d"/><path d="m442.464277 84.6248-.464277-.812.464277-.8128h.926971l.463486.8128-.463486.812z" fill="#7ea5b4"/><path d="m442.464277 83.2424h.926971l.394675.6912.068811-.1208-.463486-.8128h-.926971l-.464277.8128.069602.1208z" fill="#538597"/><path d="m475.921701 96.4776c0 .816-.654101 1.4776-1.460851 1.4776s-1.46085-.6616-1.46085-1.4776.6541-1.4776 1.46085-1.4776 1.460851.6616 1.460851 1.4776" fill="#37535d"/><path d="m474.463486 97.6248-.463486-.812.463486-.8128h.926971l.464277.8128-.464277.812z" fill="#7ea5b4"/><path d="m474.463486 96.2424h.926971l.394675.6912.069602-.1208-.464277-.8128h-.926971l-.463486.8128.068811.1208z" fill="#538597"/><path d="m449.921701 70.4776c0 .816-.654101 1.4776-1.460851 1.4776s-1.46085-.6616-1.46085-1.4776.6541-1.4776 1.46085-1.4776 1.460851.6616 1.460851 1.4776" fill="#37535d"/><path d="m448.463486 70.6248-.463486-.812.463486-.8128h.927762l.463486.8128-.463486.812z" fill="#7ea5b4"/><path d="m448.463486 69.2424h.927762l.393884.6912.069602-.1208-.463486-.8128h-.927762l-.463486.8128.068811.1208z" fill="#538597"/><path d="m444.815198 39.7608c-4.507517 3.8888-9.363045 8.964-13.812825 15.444-.000791.0008-.000791.0016-.001582.0016l-.000791.0024c9.393101-2.7264 22.41025-6.0088 30.646218-6.0088v-12.1984c-.082256 0-.158977-.0016-.242025-.0016-2.354602 0-9.720546.816-16.588995 2.7608" fill="#da3443"/><path d="m504.095517 147.976c-7.144483 6.2552-20.057229 13.5208-41.538926 13.5208-23.796752 0-37.026661-8.9152-43.556591-15.4968 7.382554 30.9144 23.392587 35.0256 23.392587 35.0256h38.802302s15.323505-3.9336 22.900628-33.0496" fill="#d2ebeb"/><path d="m462.497241 118 3.24361 6.648 7.252841 1.0664-5.24783 5.1744 1.238599 7.3072-6.48722-3.4496-6.48801 3.4496 1.23939-7.3072-5.248621-5.1744 7.252841-1.0664z" fill="#f0ad2b"/><path d="m462.433961 124 1.369894 2.8072 3.063277.4504-2.216981 2.1856.523597 3.0856-2.739787-1.4568-2.740577 1.4568.523597-3.0856-2.216981-2.1856 3.064068-.4504z" fill="#fbdb1e"/></g></svg>