<svg height="300" viewBox="0 0 900 300" width="900" xmlns="http://www.w3.org/2000/svg"><g fill="none" fill-rule="evenodd"><path d="m0 400h900v-400h-900z" fill="#2c374a"/><g transform="translate(41 -132)"><path d="m235.049166 140 .299203 2.066791 1.651631.888729-1.618554.964733-.224778 2.079747-1.299804-1.469987-1.790709.39643.815667-1.87419-.881822-1.833597 1.803488.311789z" fill="#faed4d"/><path d="m271.640798 186 1.355507 1.376282 1.735402-.529539-.696969 1.937021.965262 1.77062-1.785661-.178535-1.138212 1.624151-.407243-2.047089-1.668884-.767009 1.534368-1.086812z" fill="#faed4d"/><path d="m242.722593 317 .580771 1.678886 1.696636.467742-1.399362 1.076979.084107 1.776393-1.445041-1.012463-1.645156.629765.50609-1.703079-1.100638-1.387097 1.758266-.039589z" fill="#faed4d"/><path d="m352.513237 358 .016089 2.113597 1.470674 1.182742-1.682024.671993-.48925 2.031668-1.056019-1.698722-1.772707.073214 1.029691-1.722255-.60626-1.986345 1.692263.635386z" fill="#faed4d"/><path d="m284.282215 429 .960284 1.49061 1.757501.044748-1.104508 1.384977.500797 1.705545-1.642267-.63527-1.447311 1.00939.089143-1.777435-1.395854-1.082013 1.697347-.462882z" fill="#faed4d"/><path d="m354.100331 158.06093-.327479 1.791786 1.227148 1.29833-1.732402.227922-.801785 1.621032-.742767-1.651121-1.723046-.297126 1.273211-1.247932-.262703-1.803821 1.530157.879344z" fill="#faed4d"/><path d="m327.100921 259.061682-.327526 1.791786 1.226605 1.29833-1.732652.227922-.8019 1.62028-.742874-1.651121-1.722574-.296374 1.272675-1.248684-.262021-1.803821 1.529657.879344z" fill="#faed4d"/><path d="m277 150.500375c0 .276069-.224306.499625-.500375.499625s-.499625-.223556-.499625-.499625.223556-.500375.499625-.500375.500375.224306.500375.500375" fill="#fffffe"/><path d="m319 169.5c0 .275862-.224138.5-.5.5s-.5-.224138-.5-.5.224138-.5.5-.5.5.224138.5.5" fill="#fffffe"/><path d="m237 200.5c0 .276-.224.5-.5.5s-.5-.224-.5-.5.224-.5.5-.5.5.224.5.5" fill="#fffffe"/><path d="m318 219.5c0 .276-.224.5-.5.5s-.5-.224-.5-.5.224-.5.5-.5.5.224.5.5" fill="#fffffe"/><path d="m231 156.5c0 .276-.224.5-.5.5s-.5-.224-.5-.5.224-.5.5-.5.5.224.5.5" fill="#fffffe"/><path d="m386.666 140.333c0 .184-.149.333-.333.333s-.333-.149-.333-.333.149-.333.333-.333.333.149.333.333" fill="#fffffe"/><path d="m275.667 233.334c0 .184-.149.333-.333.333s-.334-.149-.334-.333.15-.334.334-.334.333.15.333.334" fill="#fffffe"/><path d="m250 271.5003c0 .275945-.223755.4997-.4997.4997-.276545 0-.5003-.223755-.5003-.4997s.223755-.5003.5003-.5003c.275945 0 .4997.224355.4997.5003" fill="#fffffe"/><path d="m304 285.500375c0 .276069-.224138.499625-.5.499625s-.5-.223556-.5-.499625.224138-.500375.5-.500375.5.224306.5.500375" fill="#fffffe"/><path d="m356 261.5c0 .27611-.223755.5-.5003.5-.275945 0-.4997-.22389-.4997-.5s.223755-.5.4997-.5c.276545 0 .5003.22389.5003.5" fill="#fffffe"/><path d="m371.667 201.333c0 .184-.15.334-.334.334s-.333-.15-.333-.334.149-.333.333-.333.334.149.334.333" fill="#fffffe"/><path d="m411.666 153.334c0 .184-.149.333-.333.333s-.333-.149-.333-.333.149-.334.333-.334.333.15.333.334" fill="#fffffe"/><path d="m276 337.499625c0 .276819-.224138.500375-.5.500375s-.5-.223556-.5-.500375c0-.276069.224138-.499625.5-.499625s.5.223556.5.499625" fill="#fffffe"/><path d="m351 312.5003c0 .275945-.22389.4997-.5.4997s-.5-.223755-.5-.4997.22389-.5003.5-.5003.5.224355.5.5003" fill="#fffffe"/><path d="m240 389.500375c0 .276069-.223556.499625-.499625.499625s-.500375-.223556-.500375-.499625.224306-.500375.500375-.500375.499625.224306.499625.500375" fill="#fffffe"/><path d="m319 381.5c0 .276-.224.5-.5.5s-.5-.224-.5-.5.224-.5.5-.5.5.224.5.5" fill="#fffffe"/><path d="m372.667 401.333c0 .185-.15.334-.334.334s-.333-.149-.333-.334c0-.184.149-.333.333-.333s.334.149.334.333" fill="#fffffe"/><path d="m115.049166 160 .299203 2.066791 1.651631.888729-1.618554.964733-.224778 2.079747-1.299804-1.469987-1.790709.39643.815667-1.87419-.881822-1.833597 1.803488.311789z" fill="#faed4d"/><path d="m151.640798 206 1.355507 1.376282 1.735402-.529539-.696969 1.937021.965262 1.77062-1.785661-.178535-1.138212 1.624151-.407243-2.047089-1.668884-.767009 1.534368-1.086812z" fill="#faed4d"/><path d="m207.100921 279.061682-.327526 1.791786 1.226605 1.29833-1.732652.227922-.8019 1.62028-.742874-1.651121-1.722574-.296374 1.272675-1.248684-.262021-1.803821 1.529657.879344z" fill="#faed4d"/><path d="m157 170.500375c0 .276069-.224306.499625-.500375.499625s-.499625-.223556-.499625-.499625.223556-.500375.499625-.500375.500375.224306.500375.500375" fill="#fffffe"/><path d="m199 189.5c0 .275862-.224138.5-.5.5s-.5-.224138-.5-.5.224138-.5.5-.5.5.224138.5.5" fill="#fffffe"/><path d="m117 220.5c0 .276-.224.5-.5.5s-.5-.224-.5-.5.224-.5.5-.5.5.224.5.5" fill="#fffffe"/><path d="m198 239.5c0 .276-.224.5-.5.5s-.5-.224-.5-.5.224-.5.5-.5.5.224.5.5" fill="#fffffe"/><path d="m111 176.5c0 .276-.224.5-.5.5s-.5-.224-.5-.5.224-.5.5-.5.5.224.5.5" fill="#fffffe"/><path d="m155.667 253.334c0 .184-.149.333-.333.333s-.334-.149-.334-.333.15-.334.334-.334.333.15.333.334" fill="#fffffe"/><path d="m130 291.5003c0 .275945-.223755.4997-.4997.4997-.276545 0-.5003-.223755-.5003-.4997s.223755-.5003.5003-.5003c.275945 0 .4997.224355.4997.5003" fill="#fffffe"/><path d="m184 305.500375c0 .276069-.224138.499625-.5.499625s-.5-.223556-.5-.499625.224138-.500375.5-.500375.5.224306.5.500375" fill="#fffffe"/><path d="m120 409.500375c0 .276069-.223556.499625-.499625.499625s-.500375-.223556-.500375-.499625.224306-.500375.500375-.500375.499625.224306.499625.500375" fill="#fffffe"/><path d="m199 401.5c0 .276-.224.5-.5.5s-.5-.224-.5-.5.224-.5.5-.5.5.224.5.5" fill="#fffffe"/><path d="m174.282215 379 .960284 1.49061 1.757501.044748-1.104508 1.384977.500797 1.705545-1.642267-.63527-1.447311 1.00939.089143-1.777435-1.395854-1.082013 1.697347-.462882z" fill="#faed4d"/><path d="m158.666 403.334c0 .184-.149.333-.333.333s-.333-.149-.333-.333.149-.334.333-.334.333.15.333.334" fill="#fffffe"/><path d="m125.667 395.333c0 .185-.149.334-.333.334s-.334-.149-.334-.334c0-.184.15-.333.334-.333s.333.149.333.333" fill="#fffffe"/><path d="m54.2822148 399 .9602841 1.49061 1.7575011.044748-1.1045079 1.384977.5007972 1.705545-1.642267-.63527-1.4473112 1.00939.0891434-1.777435-1.3958545-1.082013 1.6973474-.462882z" fill="#faed4d"/><path d="m10 359.500375c0 .276069-.22355589.499625-.49962491.499625-.27606901 0-.50037509-.223556-.50037509-.499625s.22430608-.500375.50037509-.500375c.27606902 0 .49962491.224306.49962491.500375" fill="#fffffe"/><path d="m38.666 423.334c0 .184-.149.333-.333.333s-.333-.149-.333-.333.149-.334.333-.334.333.15.333.334" fill="#fffffe"/><path d="m5.667 415.333c0 .185-.149.334-.333.334s-.334-.149-.334-.334c0-.184.15-.333.334-.333s.333.149.333.333" fill="#fffffe"/><g transform="matrix(-1 0 0 -1 99 354)"><path d="m5.2080177 0 .31479069 1.9144 1.73767625.8232-1.70287527.8936-.23648849 1.9264-1.36752036-1.3616-1.88399856.3672.85816055-1.736-.92776251-1.6984 1.89744439.2888z" fill="#faed4d"/><path d="m41.7558677 46 1.4505681 1.2704 1.8571069-.4888-.7458483 1.788 1.0329564 1.6344-1.9108902-.1648-1.2180343 1.4992-.4358032-1.8896-1.7859231-.708 1.6419736-1.0032z" fill="#faed4d"/><path d="m97.5059361 119.0656-.3598738 1.9056 1.3477471 1.3808-1.9037718.2424-.8810976 1.7232-.8162412-1.756-1.8926988-.3152 1.3983667-1.328-.287899-1.9184 1.6807292.9352z" fill="#faed4d"/><g fill="#fffffe"><path d="m47.0543115 10.5336c0 .2944-.2364884.5328-.5275512.5328-.2910627 0-.5267603-.2384-.5267603-.5328s.2356976-.5336.5267603-.5336c.2910628 0 .5275512.2392.5275512.5336"/><path d="m89.0551025 29.5336c0 .2944-.2364885.5336-.5275513.5336-.2910627 0-.5275512-.2392-.5275512-.5336s.2364885-.5336.5275512-.5336c.2910628 0 .5275513.2392.5275513.5336"/><path d="m6.79093138 60.4c0 .2208-.17716863.4-.39546569.4s-.39546569-.1792-.39546569-.4.17716863-.4.39546569-.4.39546569.1792.39546569.4"/><path d="m87.7909314 79.4c0 .2208-.1771686.4-.3954657.4s-.3954657-.1792-.3954657-.4.1771686-.4.3954657-.4.3954657.1792.3954657.4"/><path d="m.79093139 16.4c0 .2208-.17716863.4-.3954657.4-.21829706 0-.39546569-.1792-.39546569-.4s.17716863-.4.39546569-.4c.21829707 0 .3954657.1792.3954657.4"/><path d="m45.5275512 93.2672c0 .1472-.1178487.2664-.2633801.2664s-.2641711-.1192-.2641711-.2664.1186397-.2672.2641711-.2672.2633801.12.2633801.2672"/><path d="m20.3184826 131.6672c0 .368-.2950174.6664-.6588458.6664-.3646194 0-.6596368-.2984-.6596368-.6664s.2950174-.6672.6596368-.6672c.3638284 0 .6588458.2992.6588458.6672"/><path d="m74.0551025 145.5336c0 .2944-.2364885.5328-.5275513.5328-.2910627 0-.5275512-.2384-.5275512-.5328s.2364885-.5336.5275512-.5336c.2910628 0 .5275513.2392.5275513.5336"/></g></g><path d="m842.722593 277 .580771 1.678886 1.696636.467742-1.399362 1.076979.084107 1.776393-1.445041-1.012463-1.645156.629765.50609-1.703079-1.100638-1.387097 1.758266-.039589z" fill="#faed4d"/><path d="m837 160.5c0 .276-.224.5-.5.5s-.5-.224-.5-.5.224-.5.5-.5.5.224.5.5" fill="#fffffe"/><path d="m850 231.5003c0 .275945-.223755.4997-.4997.4997-.276545 0-.5003-.223755-.5003-.4997s.223755-.5003.5003-.5003c.275945 0 .4997.224355.4997.5003" fill="#fffffe"/><path d="m840 349.500375c0 .276069-.223556.499625-.499625.499625s-.500375-.223556-.500375-.499625.224306-.500375.500375-.500375.499625.224306.499625.500375" fill="#fffffe"/><path d="m835.667 405.333c0 .185-.149.334-.333.334s-.334-.149-.334-.334c0-.184.15-.333.334-.333s.333.149.333.333" fill="#fffffe"/><path d="m751.640798 166 1.355507 1.376282 1.735402-.529539-.696969 1.937021.965262 1.77062-1.785661-.178535-1.138212 1.624151-.407243-2.047089-1.668884-.767009 1.534368-1.086812z" fill="#faed4d"/><path d="m764.282215 409 .960284 1.49061 1.757501.044748-1.104508 1.384977.500797 1.705545-1.642267-.63527-1.447311 1.00939.089143-1.777435-1.395854-1.082013 1.697347-.462882z" fill="#faed4d"/><path d="m807.100921 239.061682-.327526 1.791786 1.226605 1.29833-1.732652.227922-.8019 1.62028-.742874-1.651121-1.722574-.296374 1.272675-1.248684-.262021-1.803821 1.529657.879344z" fill="#faed4d"/><path d="m717 180.5c0 .276-.224.5-.5.5s-.5-.224-.5-.5.224-.5.5-.5.5.224.5.5" fill="#fffffe"/><path d="m798 199.5c0 .276-.224.5-.5.5s-.5-.224-.5-.5.224-.5.5-.5.5.224.5.5" fill="#fffffe"/><path d="m755.667 213.334c0 .184-.149.333-.333.333s-.334-.149-.334-.333.15-.334.334-.334.333.15.333.334" fill="#fffffe"/><path d="m730 251.5003c0 .275945-.223755.4997-.4997.4997-.276545 0-.5003-.223755-.5003-.4997s.223755-.5003.5003-.5003c.275945 0 .4997.224355.4997.5003" fill="#fffffe"/><path d="m784 265.500375c0 .276069-.224138.499625-.5.499625s-.5-.223556-.5-.499625.224138-.500375.5-.500375.5.224306.5.500375" fill="#fffffe"/><path d="m720 369.500375c0 .276069-.223556.499625-.499625.499625s-.500375-.223556-.500375-.499625.224306-.500375.500375-.500375.499625.224306.499625.500375" fill="#fffffe"/><path d="m799 361.5c0 .276-.224.5-.5.5s-.5-.224-.5-.5.224-.5.5-.5.5.224.5.5" fill="#fffffe"/><path d="m774.282215 339 .960284 1.49061 1.757501.044748-1.104508 1.384977.500797 1.705545-1.642267-.63527-1.447311 1.00939.089143-1.777435-1.395854-1.082013 1.697347-.462882z" fill="#faed4d"/><path d="m758.666 363.334c0 .184-.149.333-.333.333s-.333-.149-.333-.333.149-.334.333-.334.333.15.333.334" fill="#fffffe"/><path d="m725.667 355.333c0 .185-.149.334-.333.334s-.334-.149-.334-.334c0-.184.15-.333.334-.333s.333.149.333.333" fill="#fffffe"/><path d="m732.722593 427 .580771 1.678886 1.696636.467742-1.399362 1.076979.084107 1.776393-1.445041-1.012463-1.645156.629765.50609-1.703079-1.100638-1.387097 1.758266-.039589z" fill="#faed4d"/><path d="m740 381.5003c0 .275945-.223755.4997-.4997.4997-.276545 0-.5003-.223755-.5003-.4997s.223755-.5003.5003-.5003c.275945 0 .4997.224355.4997.5003" fill="#fffffe"/><path d="m697.100921 389.061682-.327526 1.791786 1.226605 1.29833-1.732652.227922-.8019 1.62028-.742874-1.651121-1.722574-.296374 1.272675-1.248684-.262021-1.803821 1.529657.879344z" fill="#faed4d"/><path d="m620 401.5003c0 .275945-.223755.4997-.4997.4997-.276545 0-.5003-.223755-.5003-.4997s.223755-.5003.5003-.5003c.275945 0 .4997.224355.4997.5003" fill="#fffffe"/><path d="m674 415.500375c0 .276069-.224138.499625-.5.499625s-.5-.223556-.5-.499625.224138-.500375.5-.500375.5.224306.5.500375" fill="#fffffe"/><g transform="matrix(-1 0 0 -1 699 314)"><path d="m5.2080177 0 .31479069 1.9144 1.73767625.8232-1.70287527.8936-.23648849 1.9264-1.36752036-1.3616-1.88399856.3672.85816055-1.736-.92776251-1.6984 1.89744439.2888z" fill="#faed4d"/><path d="m41.7558677 46 1.4505681 1.2704 1.8571069-.4888-.7458483 1.788 1.0329564 1.6344-1.9108902-.1648-1.2180343 1.4992-.4358032-1.8896-1.7859231-.708 1.6419736-1.0032z" fill="#faed4d"/><path d="m97.5059361 119.0656-.3598738 1.9056 1.3477471 1.3808-1.9037718.2424-.8810976 1.7232-.8162412-1.756-1.8926988-.3152 1.3983667-1.328-.287899-1.9184 1.6807292.9352z" fill="#faed4d"/><g fill="#fffffe"><path d="m47.0543115 10.5336c0 .2944-.2364884.5328-.5275512.5328-.2910627 0-.5267603-.2384-.5267603-.5328s.2356976-.5336.5267603-.5336c.2910628 0 .5275512.2392.5275512.5336"/><path d="m89.0551025 29.5336c0 .2944-.2364885.5336-.5275513.5336-.2910627 0-.5275512-.2392-.5275512-.5336s.2364885-.5336.5275512-.5336c.2910628 0 .5275513.2392.5275513.5336"/><path d="m6.79093138 60.4c0 .2208-.17716863.4-.39546569.4s-.39546569-.1792-.39546569-.4.17716863-.4.39546569-.4.39546569.1792.39546569.4"/><path d="m87.7909314 79.4c0 .2208-.1771686.4-.3954657.4s-.3954657-.1792-.3954657-.4.1771686-.4.3954657-.4.3954657.1792.3954657.4"/><path d="m.79093139 16.4c0 .2208-.17716863.4-.3954657.4-.21829706 0-.39546569-.1792-.39546569-.4s.17716863-.4.39546569-.4c.21829707 0 .3954657.1792.3954657.4"/><path d="m45.5275512 93.2672c0 .1472-.1178487.2664-.2633801.2664s-.2641711-.1192-.2641711-.2664.1186397-.2672.2641711-.2672.2633801.12.2633801.2672"/><path d="m20.3184826 131.6672c0 .368-.2950174.6664-.6588458.6664-.3646194 0-.6596368-.2984-.6596368-.6664s.2950174-.6672.6596368-.6672c.3638284 0 .6588458.2992.6588458.6672"/><path d="m74.0551025 145.5336c0 .2944-.2364885.5328-.5275513.5328-.2910627 0-.5275512-.2384-.5275512-.5328s.2364885-.5336.5275512-.5336c.2910628 0 .5275513.2392.5275513.5336"/></g></g><path d="m318.667 333.333c0 .185-.149.334-.333.334s-.334-.149-.334-.334c0-.184.15-.333.334-.333s.333.149.333.333" fill="#fffffe"/><path d="m391 333.499625c0 .276819-.224306.500375-.500375.500375s-.499625-.223556-.499625-.500375c0-.276069.223556-.499625.499625-.499625s.500375.223556.500375.499625" fill="#fffffe"/><path d="m603.950834 140-.299203 2.066791-1.651631.888729 1.618554.964733.224778 2.079747 1.299804-1.469987 1.790709.39643-.815667-1.87419.881822-1.833597-1.803488.311789z" fill="#faed4d"/><path d="m567.359444 186-1.356045 1.376282-1.734407-.529539.696867 1.937021-.965859 1.77062 1.786137-.178535 1.138043 1.624151.407183-2.047089 1.668637-.767009-1.534141-1.086812z" fill="#faed4d"/><path d="m596.277407 317-.580771 1.678886-1.696636.467742 1.399362 1.076979-.084107 1.776393 1.445041-1.012463 1.645156.629765-.50609-1.703079 1.100638-1.387097-1.758266-.039589z" fill="#faed4d"/><path d="m486.486032 358-.016089 2.113597-1.469943 1.182742 1.682024.671993.48925 2.031668 1.056019-1.698722 1.772707.073214-1.029691-1.722255.60626-1.986345-1.692263.635386z" fill="#faed4d"/><path d="m554.71706 429-.959559 1.49061-1.757501.044748 1.104508 1.384977-.500797 1.705545 1.642267-.63527 1.447311 1.00939-.089143-1.777435 1.395854-1.082013-1.697347-.462882z" fill="#faed4d"/><path d="m484.898949 158.06093.328199 1.791786-1.227148 1.29833 1.732402.227922.801785 1.621032.742767-1.651121 1.723046-.297126-1.273211-1.247932.262703-1.803821-1.530157.879344z" fill="#faed4d"/><path d="m511.899079 259.061682.327526 1.791786-1.226605 1.29833 1.731932.227922.80262 1.62028.742874-1.651121 1.722574-.296374-1.272675-1.248684.262021-1.803821-1.529657.879344z" fill="#faed4d"/><g fill="#fffffe"><path d="m563 150.500375c0 .276069.223556.499625.500375.499625.276069 0 .499625-.223556.499625-.499625s-.223556-.500375-.499625-.500375c-.276819 0-.500375.224306-.500375.500375"/><path d="m520 169.5c0 .275862.224138.5.5.5s.5-.224138.5-.5-.224138-.5-.5-.5-.5.224138-.5.5"/><path d="m602 200.5c0 .276.224.5.5.5s.5-.224.5-.5-.224-.5-.5-.5-.5.224-.5.5"/><path d="m522 219.5c0 .276.224.5.5.5s.5-.224.5-.5-.224-.5-.5-.5-.5.224-.5.5"/><path d="m608 156.5c0 .276.223.5.5.5.276 0 .5-.224.5-.5s-.224-.5-.5-.5c-.277 0-.5.224-.5.5"/><path d="m453 140.333c0 .184.149.333.333.333s.333-.149.333-.333-.149-.333-.333-.333-.333.149-.333.333"/><path d="m564 233.334c0 .184.149.333.333.333s.334-.149.334-.333-.15-.334-.334-.334-.333.15-.333.334"/><path d="m589 271.5003c0 .275945.223755.4997.4997.4997s.5003-.223755.5003-.4997-.224355-.5003-.5003-.5003-.4997.224355-.4997.5003"/><path d="m535 285.500375c0 .276069.224138.499625.5.499625s.5-.223556.5-.499625-.224138-.500375-.5-.500375-.5.224306-.5.500375"/><path d="m483 261.5c0 .27611.223755.5.5003.5.275945 0 .4997-.22389.4997-.5s-.223755-.5-.4997-.5c-.276545 0-.5003.22389-.5003.5"/><path d="m468 201.333c0 .184.149.334.334.334.184 0 .333-.15.333-.334s-.149-.333-.333-.333c-.185 0-.334.149-.334.333"/><path d="m436 160.333c0 .184.149.333.333.333s.333-.149.333-.333-.149-.333-.333-.333-.333.149-.333.333"/><path d="m564 337.499625c0 .276819.224138.500375.5.500375s.5-.223556.5-.500375c0-.276069-.224138-.499625-.5-.499625s-.5.223556-.5.499625"/><path d="m488 312.5003c0 .275945.22389.4997.5.4997s.5-.223755.5-.4997-.22389-.5003-.5-.5003-.5.224355-.5.5003"/><path d="m600 389.500375c0 .276069.223556.499625.499625.499625s.500375-.223556.500375-.499625-.224306-.500375-.500375-.500375-.499625.224306-.499625.500375"/><path d="m521 381.5c0 .276.224.5.5.5s.5-.224.5-.5-.224-.5-.5-.5-.5.224-.5.5"/><path d="m470 398.333c0 .184.15.333.334.333s.333-.149.333-.333-.149-.333-.333-.333-.334.149-.334.333"/><path d="m521 333.333c0 .185.149.334.333.334s.334-.149.334-.334c0-.184-.15-.333-.334-.333s-.333.149-.333.333"/><path d="m451 347.499625c0 .276819.223556.500375.499625.500375s.500375-.223556.500375-.500375c0-.276069-.224306-.499625-.500375-.499625s-.499625.223556-.499625.499625"/></g></g><g transform="translate(102 166)"><path d="m375.105289 0h-35.398356s3.041272 68.8748757-8.244711 105.090909h51.887778c-11.285983-36.2160333-8.244711-105.090909-8.244711-105.090909" fill="#3b475d"/><path d="m549.081111 151.854144c-4.149325-.928277-8.660058-1.443625-13.383431-1.443625-2.498327 0-4.936824.14413-7.296085.416171.272471-1.009842.415579-2.043783.415579-3.096726 0-11.104559-15.704692-20.106013-35.076831-20.106013-4.210772 0-8.247713.425904-11.988735 1.205879-1.570146-3.156511-6.628247-5.470018-12.639593-5.470018-2.112663 0-4.102431.292432-5.872281.799902-3.263187-7.211173-14.693234-12.536134-28.294966-12.536134-4.300518 0-8.38031.536667-12.057458 1.49275-2.601818-2.375609-6.658971-4.171914-11.458346-4.979232.060639-.375852.096214-.756339.096214-1.14146 0-6.785733-9.597132-12.286802-21.436291-12.286802-4.563287 0-8.790229.8198307-12.266057 2.2129405-2.009172-4.5486934-9.196915-7.9151437-17.757524-7.9151437-2.74816 0-5.353211.3489726-7.693068.9709132-5.156741-2.6147457-11.93133-4.2048187-19.356778-4.2048187-15.264857 0-27.789641 6.7078746-29.109145 15.2607157-3.858258-2.7218008-9.743475-4.4620294-16.338572-4.4620294-11.624092 0-21.046584 5.4009654-21.046584 12.0634224 0 1.035332.228002 2.039613.655709 2.998013-.2183-.002781-.435792-.009269-.655709-.009269-8.580015 0-16.215678 2.306093-21.139564 5.892678-3.431359-1.102067-7.385831-1.732813-11.59822-1.732813-13.130365 0-23.77453 6.101228-23.77453 13.627543 0 1.152119.252258 2.270407.722008 3.339107-1.134354-.065809-2.285686-.099641-3.449955-.099641-7.099614 0-13.687435 1.252687-19.133626 3.39055-6.464117-2.15223-13.969608-3.39055-21.984467-3.39055-7.749664 0-15.023919 1.156754-21.341694 3.17922v31.079417h404.26z" fill="#3b475d"/><g fill="#fffffe"><path d="m697 170c-10.114241-3.464256-84.737934-9.677626-223.87108-18.640109-2.787921-.179588-6.241085.503565-9.071935 1.425762-1.188137-3.732077-10.436738-19.481757-14.985554-19.481757-1.598662 0-3.10433.346303-4.443584.946306-2.46927-8.526077-11.118443-14.822004-21.410942-14.822004-3.254223 0-6.341422.634524-9.123939 1.764942-1.968808-2.808784-5.038876-4.932632-8.670587-5.887158.045886-.444386.072806-.894251.072806-1.349597 0-8.023608-7.262198-14.5277555-16.220948-14.5277555-3.453062 0-6.651611.9698685-9.281787 2.6170015-1.52035-5.3781135-6.959351-9.3584107-13.437207-9.3584107-2.079546 0-4.050801.4126052-5.821383 1.1479519-3.902131-3.0915249-9.028496-4.9715358-14.64737-4.9715358-11.550993 0-21.028559 7.9310051-22.027035 18.0433926-2.919563-3.218101-7.372936-5.275647-12.363479-5.275647-8.796008 0-15.926055 6.385791-15.926055 14.263097 0 1.223569.172531 2.411521.496179 3.544678-6.988719-.010959-12.766663 2.715084-16.492592 6.956205-2.596527-1.303021-5.588895-2.048779-8.776431-2.048779-9.935812 0-17.990305 7.213741-17.990305 16.112423 0 1.3622.190885 2.684399.546347 3.947968-.858371-.077809-1.72959-.117809-2.610598-.117809-5.372314 0-10.35735 1.481105-14.47851 4.008791-4.89143-2.544673-44.910018-14.047754-236.464011 21.702044h203.678889 305.905555z"/><path d="m367.70865 23.9545455h-20.605078s1.770316 53.1759056-4.799128 81.1363635h30.203334c-6.569443-27.9604579-4.799128-81.1363635-4.799128-81.1363635"/></g></g><g transform="translate(406 72)"><path d="m106 53.8340164c0 29.7318709-23.7287462 53.8340166-53 53.8340166-29.2706433 0-53-24.1021457-53-53.8340166s23.7293567-53.8340164 53-53.8340164c29.2712538 0 53 24.1021455 53 53.8340164" fill="#3b475d"/><path d="m60.9516167 139.42623h-15.1295108s-5.2490139 8.055737-4.7858656 23.857377c.4631483 15.801639 12.350621 25.716393 12.350621 25.716393s11.8874727-9.914754 12.350621-25.716393c.4631483-15.80164-4.7858656-23.857377-4.7858656-23.857377" fill="#e9842d"/><path d="m58.7379565 139.42623h-9.9284677s-3.4446214 6.293622-3.140886 18.638923c.3043591 12.344683 8.1054317 20.090585 8.1054317 20.090585s7.8010725-7.745902 8.1048079-20.090585c.3037354-12.345301-3.1408859-18.638923-3.1408859-18.638923" fill="#f0ad2b"/><path d="m55.7507174 139.42623h-4.7277121s-1.6402751 4.153893-1.4957366 12.301537c.1451309 8.147643 3.8598888 13.259938 3.8598888 13.259938s3.7147579-5.112295 3.8592964-13.259938c.1445385-8.147644-1.4957365-12.301537-1.4957365-12.301537" fill="#fada2c"/><path d="m60.4746125 120.061475-7.4743634 1.520033-7.4749729-1.520033s-8.8108995.818624-7.4749729 8.885771c1.3365361 8.067771 4.6568502 15.901115 4.6568502 15.901115h20.5855816s3.3203141-7.833344 4.6568502-15.901115c1.3365362-8.067147-7.4749728-8.885771-7.4749728-8.885771" fill="#da3443"/><path d="m59.5766423 144.848361h2.3211679v-20.139345h-2.3211679z" fill="#b22b38"/><path d="m54.9343066 144.848361h2.3211679v-20.139345h-2.3211679z" fill="#b22b38"/><path d="m64.9927007 142.52459c.6479386-1.90261 1.5455623-4.749942 2.3211679-7.96087v-9.854704h-2.3211679z" fill="#b22b38"/><path d="m49.5182482 144.848361h2.3211679v-20.139345h-2.3211679z" fill="#b22b38"/><path d="m39.459854 134.729695c.7874685 3.175882 1.6873518 5.967259 2.3211679 7.794895v-17.815574h-2.3211679z" fill="#b22b38"/><path d="m44.8759124 144.848361h2.3211679v-20.139345h-2.3211679z" fill="#b22b38"/><path d="m68.0875912 125.841267s17.2053613.621307 18.8802195 40.695618h9.4401098s9.2878495-42.248886-13.7033851-58.868852z" fill="#da3443"/><path d="m68.0875912 125.817006 5.5272462-6.871402 2.5481769-.433309s16.3032126 8.548066 14.170082 48.02459h-3.3520624c-1.6760312-40.098201-18.8934427-40.719879-18.8934427-40.719879" fill="#b22b38"/><path d="m38.6861314 125.841267s-17.2053613.621307-18.8802195 40.695618h-9.4401097s-9.28784995-42.248886 13.7033851-58.868852z" fill="#da3443"/><path d="m38.6861314 125.817006-5.5272462-6.871402-2.5481769-.433309s-16.3032125 8.548066-14.1700819 48.02459h3.3520624c1.6760312-40.098201 18.8934426-40.719879 18.8934426-40.719879" fill="#b22b38"/><path d="m53.7737226 10.0696721v.0037294-.0037294s-35.9781022 14.1350528-35.9781022 63.6304246c0 49.4947503 20.9489335 54.8818703 20.9489335 54.8818703h30.0577248s20.9495461-5.38712 20.9495461-54.8818703c0-49.4953718-35.9781022-63.6304246-35.9781022-63.6304246" fill="#fffffe"/><path d="m66.5591161 18.38036c3.5284484 2.977685 7.3280301 6.863806 10.8106706 11.8255936 0 0 .000619.0012251.001238.0012251 0 0 .000619.0012251.0012381.0018377-7.3521721-2.0876262-17.5394835-4.6009859-23.9854015-4.6009859v-9.3404119c.0637597 0 .1238052-.0012252.188803-.0012252 1.8434595 0 7.6078298.6248177 12.9834518 2.1139666" fill="#da3443"/><path d="m69.6350365 54.2213115c0 9.4112223-7.4481426 17.0409836-16.6353405 17.0409836s-16.6347325-7.6297613-16.6347325-17.0409836c0-9.4112224 7.4475346-17.0409836 16.6347325-17.0409836s16.6353405 7.6297612 16.6353405 17.0409836" fill="#43636d"/><path d="m69.6350365 52.6718197c0 9.4113944-7.4481426 17.0412951-16.6353405 17.0412951s-16.6347325-7.6299007-16.6347325-17.0412951 7.4475346-17.0406722 16.6347325-17.0406722 16.6353405 7.6292778 16.6353405 17.0406722" fill="#587f8e"/><path d="m64.9927007 52.2845247c0 6.6310181-5.1962132 12.0064589-11.6061404 12.0064589-6.4093252 0-11.6055384-5.3754408-11.6055384-12.0064589 0-6.6303954 5.1962132-12.0058362 11.6055384-12.0058362 6.4099272 0 11.6061404 5.3754408 11.6061404 12.0058362" fill="#9ad4ea"/><path d="m59.5766423 62.5835665-16.0901156-16.1081567c-1.0391115 1.705591-1.6562549 3.6924037-1.7055048 5.8240881l11.9780553 11.9914857c2.129905-.0486964 4.1138844-.6671405 5.8175651-1.7074171" fill="#bfe4ee"/><path d="m52.6333675 40.2786885c-1.0880474.0855563-2.1318069.3302725-3.1151193.7115014l14.7981634 15.5548921c.362084-1.0342248.5954935-2.1307296.6762891-3.2750453z" fill="#bfe4ee"/><path d="m62.6715328 59.5038433-16.2071566-16.9013843c-.8891376.6636505-1.6841738 1.4512243-2.3621864 2.3438499l16.3217673 17.0209042c.8559608-.706426 1.6117881-1.5361463 2.2475757-2.4633698" fill="#bfe4ee"/><path d="m53.3865603 42.1805687c6.1046926 0 11.0980181 4.9647882 11.5603853 11.2661526.0228776-.3149731.0457551-.6299463.0457551-.951257 0-6.7468898-5.1962132-12.2167758-11.6061404-12.2167758-6.4093252 0-11.6055384 5.469886-11.6055384 12.2167758 0 .3213107.0222755.6362839.0457551.951257.4623672-6.3013644 5.4550907-11.2661526 11.5597833-11.2661526" fill="#68c5e4"/><g fill="#21373e"><path d="m53 37.1803279c-.6409289 0-1.1605839.5202377-1.1605839 1.1618852s.519655 1.1618853 1.1605839 1.1618853 1.1605839-.5202378 1.1605839-1.1618853-.519655-1.1618852-1.1605839-1.1618852"/><path d="m53 65.8401639c-.6409289 0-1.1605839.5202378-1.1605839 1.1618853s.519655 1.1618852 1.1605839 1.1618852 1.1605839-.5202377 1.1605839-1.1618852-.519655-1.1618853-1.1605839-1.1618853"/><path d="m63.0583942 41.0532787c-.6409289 0-1.160584.5202377-1.160584 1.1618852s.5196551 1.1618853 1.160584 1.1618853c.6409288 0 1.1605839-.5202378 1.1605839-1.1618853s-.5196551-1.1618852-1.1605839-1.1618852"/><path d="m42.9416058 61.9672131c-.6409288 0-1.1605839.5202378-1.1605839 1.1618853s.5196551 1.1618852 1.1605839 1.1618852c.6409289 0 1.160584-.5202377 1.160584-1.1618852s-.5196551-1.1618853-1.160584-1.1618853"/><path d="m67.7010442 51.1229508c-.6411024 0-1.1608982.5202378-1.1608982 1.1618853s.5197958 1.1618852 1.1608982 1.1618852 1.1602697-.5202377 1.1602697-1.1618852-.5191673-1.1618853-1.1602697-1.1618853"/><path d="m39.0729927 51.1229508c-.6409289 0-1.1605839.5202378-1.1605839 1.1618853s.519655 1.1618852 1.1605839 1.1618852 1.1605839-.5202377 1.1605839-1.1618852-.519655-1.1618853-1.1605839-1.1618853"/><path d="m63.0583942 61.9672131c-.6409289 0-1.160584.5202378-1.160584 1.1618853s.5196551 1.1618852 1.160584 1.1618852c.6409288 0 1.1605839-.5202377 1.1605839-1.1618852s-.5196551-1.1618853-1.1605839-1.1618853"/><path d="m42.9416058 41.0532787c-.6409288 0-1.1605839.5202377-1.1605839 1.1618852s.5196551 1.1618853 1.1605839 1.1618853c.6409289 0 1.160584-.5202378 1.160584-1.1618853s-.5196551-1.1618852-1.160584-1.1618852"/></g><path d="m54.1605839 37.5679376c0 .6418212-.519655 1.1615706-1.1605839 1.1615706s-1.1605839-.5197494-1.1605839-1.1615706c0-.6424505.519655-1.1621999 1.1605839-1.1621999s1.1605839.5197494 1.1605839 1.1621999" fill="#37535d"/><path d="m52.999835 38.7295082-.3866963-.7742088.3866963-.7749715h.7740526l.3866963.7749715-.3866963.7742088z" fill="#7ea5b4"/><path d="m52.999835 37.3814425h.7740526l.3286259.5734755.0580704-.1002254-.3866963-.6743647h-.7740526l-.3866963.6743647.0574105.1002254z" fill="#538597"/><path d="m54.1605839 67.0020492c0 .6416475-.519655 1.1618852-1.1605839 1.1618852s-1.1605839-.5202377-1.1605839-1.1618852.519655-1.1618853 1.1605839-1.1618853 1.1605839.5202378 1.1605839 1.1618853" fill="#37535d"/><path d="m52.999835 68.1639344-.3866963-.7749715.3866963-.7742088h.7740526l.3866963.7742088-.3866963.7749715z" fill="#7ea5b4"/><path d="m52.999835 66.8158688h.7740526l.3286259.5734755.0580704-.1008892-.3866963-.673701h-.7740526l-.3866963.673701.0574105.1008892z" fill="#538597"/><path d="m64.2189781 42.2151639c0 .6416475-.5196551 1.1618853-1.1605839 1.1618853-.6409289 0-1.160584-.5202378-1.160584-1.1618853s.5196551-1.1618852 1.160584-1.1618852c.6409288 0 1.1605839.5202377 1.1605839 1.1618852" fill="#37535d"/><path d="m63.0582292 42.602459-.3866964-.7742088.3866964-.7749715h.7733927l.3873562.7749715-.3873562.7742088z" fill="#7ea5b4"/><path d="m63.0582292 41.2543934h.7733927l.3292858.5734755.0580704-.1002255-.3873562-.6743647h-.7733927l-.3866964.6743647.0574106.1002255z" fill="#538597"/><path d="m44.1021898 62.3545082c0 .6416475-.5196551 1.1618852-1.160584 1.1618852-.6409288 0-1.1605839-.5202377-1.1605839-1.1618852s.5196551-1.1618852 1.1605839-1.1618852c.6409289 0 1.160584.5202377 1.160584 1.1618852" fill="#37535d"/><path d="m42.9414409 63.5163934-.3866964-.7742087.3866964-.7749716h.7740525l.3866964.7749716-.3866964.7742087z" fill="#7ea5b4"/><path d="m42.9414409 62.1683278h.7740525l.3286259.5734755.0580705-.1002255-.3866964-.6743647h-.7740525l-.3866964.6743647.0574106.1002255z" fill="#538597"/><path d="m68.8613139 52.2848361c0 .6416475-.5191673 1.1618852-1.1602697 1.1618852s-1.1608982-.5202377-1.1608982-1.1618852.5197958-1.1618853 1.1608982-1.1618853 1.1602697.5202378 1.1602697 1.1618853" fill="#37535d"/><path d="m66.9268423 53.4467213-.3866963-.7742088.3866963-.7749715h.7740526l.3866963.7749715-.3866963.7742088z" fill="#7ea5b4"/><path d="m66.9268423 52.0986557h.7740526l.3292858.5734754.0574105-.1002254-.3866963-.6743647h-.7740526l-.3866963.6743647.0580704.1002254z" fill="#538597"/><path d="m40.2335766 52.2848361c0 .6416475-.519655 1.1618852-1.1605839 1.1618852s-1.1605839-.5202377-1.1605839-1.1618852.519655-1.1618853 1.1605839-1.1618853 1.1605839.5202378 1.1605839 1.1618853" fill="#37535d"/><path d="m38.299765 53.4467213-.3873562-.7742088.3873562-.7749715h.7733927l.3866963.7749715-.3866963.7742088z" fill="#7ea5b4"/><path d="m38.299765 52.0986557h.7733927l.3292858.5734754.0574105-.1002254-.3866963-.6743647h-.7733927l-.3873562.6743647.0580704.1002254z" fill="#538597"/><path d="m64.2189781 62.3545082c0 .6416475-.5196551 1.1618852-1.1605839 1.1618852-.6409289 0-1.160584-.5202377-1.160584-1.1618852s.5196551-1.1618852 1.160584-1.1618852c.6409288 0 1.1605839.5202377 1.1605839 1.1618852" fill="#37535d"/><path d="m63.0582292 63.5163934-.3866964-.7742087.3866964-.7749716h.7733927l.3873562.7749716-.3873562.7742087z" fill="#7ea5b4"/><path d="m63.0582292 62.1683278h.7733927l.3292858.5734755.0580704-.1002255-.3873562-.6743647h-.7733927l-.3866964.6743647.0574106.1002255z" fill="#538597"/><path d="m44.1021898 42.2151639c0 .6416475-.5196551 1.1618853-1.160584 1.1618853-.6409288 0-1.1605839-.5202378-1.1605839-1.1618853s.5196551-1.1618852 1.1605839-1.1618852c.6409289 0 1.160584.5202377 1.160584 1.1618852" fill="#37535d"/><path d="m42.9414409 42.602459-.3866964-.7742088.3866964-.7749715h.7740525l.3866964.7749715-.3866964.7742088z" fill="#7ea5b4"/><path d="m42.9414409 41.2543934h.7740525l.3286259.5734755.0580705-.1002255-.3866964-.6743647h-.7740525l-.3866964.6743647.0574106.1002255z" fill="#538597"/><path d="m40.2139875 18.38036c-3.5278294 2.977685-7.3280301 6.863806-10.8106706 11.8255936-.000619.0006125-.000619.0012251-.001238.0012251l-.000619.0018377c7.351553-2.0876262 17.5394834-4.6009859 23.9854014-4.6009859v-9.3404119c-.0643787 0-.1244242-.0012252-.189422-.0012252-1.8428404 0-7.6078298.6248177-12.9834518 2.1139666" fill="#da3443"/><path d="m85.8832117 102.226193c-5.5216435 4.841675-15.5013127 10.465424-32.1035309 10.465424-18.391419 0-28.6162093-6.900579-33.6628925-11.994896 5.7056372 23.928488 18.0790577 27.110656 18.0790577 27.110656h29.9885208s11.8428342-3.044701 17.6988449-25.581184" fill="#d2ebeb"/><path d="m53.7740287 79.0081967 2.5104083 5.0995003 5.6133732.8180065-4.0615847 3.9691418.9586197 5.6051547-5.0208165-2.6460945-5.0214287 2.6460945.9592319-5.6051547-4.0621969-3.9691418 5.6133733-.8180065z" fill="#f0ad2b"/><path d="m53.7740332 83.6557377 1.0757995 2.2945626 2.4056418.3681501-1.7410312 1.7864762.4111889 2.5221226-2.151599-1.1907662-2.1522202 1.1907662.411189-2.5221226-1.7410312-1.7864762 2.4062629-.3681501z" fill="#fbdb1e"/></g></g></svg>